Coordinates
version=1
nRows=26
nColumns=24
inDegrees=yes

Units are S.I. units (second, meters, Newtons, ...)
Angles are in degrees.

endheader
time	pelvis_tilt	pelvis_list	pelvis_rotation	pelvis_tx	pelvis_ty	pelvis_tz	hip_flexion_r	hip_adduction_r	hip_rotation_r	knee_angle_r	ankle_angle_r	subtalar_angle_r	mtp_angle_r	hip_flexion_l	hip_adduction_l	hip_rotation_l	knee_angle_l	ankle_angle_l	subtalar_angle_l	mtp_angle_l	lumbar_extension	lumbar_bending	lumbar_rotation
      5.18000000	     -3.20401053	      2.02186275	    -12.72743097	      1.76259450	      0.91189276	     -0.17713970	      2.07215982	     -4.95091279	      5.04246484	    -58.80035642	    -12.00489201	      7.53064964	      0.00000000	     30.32266331	      1.90273157	     -4.53343672	    -36.59170884	     11.48407907	    -22.23655492	      0.00000000	    -24.06491148	    -12.99689689	     18.44701925
      5.19000000	     -3.14187293	      2.30033869	    -12.71257055	      1.77706389	      0.91562999	     -0.17767437	      4.39846133	     -4.87405514	      5.49909727	    -61.48046616	    -10.50486007	      8.93433945	      0.00000000	     28.78685018	      2.56326857	     -4.42769725	    -35.55073324	     11.87392093	    -22.42487350	      0.00000000	    -24.24688128	    -13.23402996	     17.98975603
      5.20000000	     -3.03948669	      2.49890056	    -12.68588986	      1.79148761	      0.91956630	     -0.17822294	      6.60667415	     -4.74096827	      5.81531977	    -63.75780061	     -8.85247277	     10.09715793	      0.00000000	     27.11664386	      3.17154848	     -4.23715617	    -34.34847799	     12.14518575	    -22.64198758	      0.00000000	    -24.49361839	    -13.36659680	     17.51153338
      5.21000000	     -2.92180979	      2.59204013	    -12.60515042	      1.80593251	      0.92361256	     -0.17883457	      8.69497666	     -4.53218089	      5.93812938	    -65.61115311	     -7.23843350	     10.88481491	      0.00000000	     25.33931307	      3.70226726	     -3.94318086	    -33.00554495	     12.36875122	    -22.85521276	      0.00000000	    -24.76760146	    -13.33727333	     17.00509856
      5.22000000	     -2.80913070	      2.60553710	    -12.46406869	      1.82036422	      0.92767830	     -0.17947231	     10.69145082	     -4.27541185	      5.85414625	    -67.05479924	     -5.73971562	     11.18031671	      0.00000000	     23.49850997	      4.15405622	     -3.58365926	    -31.55285434	     12.52113345	    -23.01230226	      0.00000000	    -25.04434083	    -13.17827286	     16.45709784
      5.23000000	     -2.66229106	      2.52549616	    -12.25152036	      1.83479304	      0.93176573	     -0.18020699	     12.53807637	     -3.98048958	      5.56181330	    -68.08654076	     -4.34460864	     11.04265180	      0.00000000	     21.55553700	      4.52618439	     -3.13936109	    -29.99493364	     12.56061254	    -23.21633183	      0.00000000	    -25.36978823	    -12.87496576	     15.93904192
      5.24000000	     -2.57956374	      2.36990560	    -11.93567574	      1.84920089	      0.93565579	     -0.18098912	     14.33997091	     -3.64309368	      5.05736186	    -68.73195633	     -3.06086893	     10.54073052	      0.00000000	     19.65007259	      4.78183065	     -2.69746983	    -28.39935729	     12.65868808	    -23.21330196	      0.00000000	    -25.62770124	    -12.42219495	     15.30398320
      5.25000000	     -2.44890791	      2.08900726	    -11.51654114	      1.86361903	      0.93953643	     -0.18185856	     15.93453303	     -3.24525050	      4.34875607	    -68.94952073	     -1.84412709	      9.74764177	      0.00000000	     17.64464740	      4.91238696	     -2.12829113	    -26.75218693	     12.68191061	    -23.17439945	      0.00000000	    -25.95153143	    -11.79756795	     14.69775008
      5.26000000	     -2.39085214	      1.77529749	    -11.04214006	      1.87794590	      0.94308837	     -0.18273206	     17.51461350	     -2.85345122	      3.50553565	    -68.81993234	     -0.68502108	      8.76931378	      0.00000000	     15.72749725	      4.93937551	     -1.63767629	    -25.11089613	     12.71956481	    -22.98954421	      0.00000000	    -26.18752952	    -11.09318091	     14.03591556
      5.27000000	     -2.37998447	      1.44200405	    -10.52793817	      1.89217870	      0.94630837	     -0.18362745	     19.05555164	     -2.48315705	      2.56635632	    -68.35039061	      0.36601969	      7.64776968	      0.00000000	     13.87426564	      4.89637642	     -1.16160000	    -23.47401741	     12.75382877	    -22.72938900	      0.00000000	    -26.36006631	    -10.33886306	     13.35411648
      5.28000000	     -2.37697634	      1.05047677	     -9.95343238	      1.90634566	      0.94924805	     -0.18455367	     20.48271756	     -2.11035450	      1.51855479	    -67.52661572	      1.34442459	      6.51342322	      0.00000000	     12.05198696	      4.75685265	     -0.66943462	    -21.87363198	     12.76481750	    -22.42378574	      0.00000000	    -26.52444564	     -9.49616901	     12.69286716
      5.29000000	     -2.43035237	      0.69033256	     -9.37855369	      1.92040873	      0.95174529	     -0.18545333	     21.89897634	     -1.80847092	      0.42565913	    -66.40499630	      2.19465877	      5.34778896	      0.00000000	     10.33343851	      4.59860533	     -0.21950323	    -20.31321555	     12.74882152	    -22.08134747	      0.00000000	    -26.60214484	     -8.69304017	     12.11455758
      5.30000000	     -2.49459696	      0.30432829	     -8.75051791	      1.93437987	      0.95386612	     -0.18639617	     23.21438155	     -1.52722536	     -0.72169036	    -64.96556200	      2.94311537	      4.27621119	      0.00000000	      8.67345161	      4.38418953	      0.22011552	    -18.81241701	     12.74949873	    -21.74906756	      0.00000000	    -26.68547174	     -7.83130368	     11.42787240
      5.31000000	     -2.47445143	     -0.02837050	     -8.09161347	      1.94829986	      0.95565705	     -0.18737737	     24.34958538	     -1.36391013	     -1.87650747	    -63.25594933	      3.67778067	      3.37606115	      0.00000000	      6.96262836	      4.21415561	      0.67525047	    -17.34647967	     12.77420310	    -21.38842110	      0.00000000	    -26.86332227	     -7.03182461	     10.67255817
      5.32000000	     -2.56425271	     -0.30990002	     -7.45942767	      1.96214470	      0.95687281	     -0.18824997	     25.51846322	     -1.25268445	     -3.02046463	    -61.26438008	      4.25966947	      2.48811912	      0.00000000	      5.41689611	      4.04478294	      1.03420298	    -15.93117916	     12.77635441	    -21.05755623	      0.00000000	    -26.89120509	     -6.30621919	     10.02064305
      5.33000000	     -2.66344645	     -0.53215192	     -6.81649984	      1.97597403	      0.95761523	     -0.18910858	     26.59395892	     -1.23163189	     -4.15251156	    -58.99982128	      4.79794301	      1.77146986	      0.00000000	      3.91309543	      3.91390562	      1.35130067	    -14.54807756	     12.80787392	    -20.72634592	      0.00000000	    -26.89668616	     -5.64825091	      9.35099477
      5.34000000	     -2.74798991	     -0.68536222	     -6.16551213	      1.98982834	      0.95791213	     -0.18996236	     27.54083152	     -1.30702911	     -5.26456195	    -56.46207228	      5.29854488	      1.23213533	      0.00000000	      2.41187858	      3.83653274	      1.62067297	    -13.18055574	     12.85909549	    -20.38014690	      0.00000000	    -26.90932368	     -5.06475535	      8.66525442
      5.35000000	     -2.82903389	     -0.76877369	     -5.50713891	      2.00375182	      0.95776995	     -0.19071693	     28.35514325	     -1.45959692	     -6.34134534	    -53.64200490	      5.75338296	      0.90668961	      0.00000000	      0.91751586	      3.80387111	      1.83181492	    -11.82901003	     12.91203283	    -20.00469154	      0.00000000	    -26.90481887	     -4.58985494	      7.96334306
      5.36000000	     -2.69759788	     -0.75326814	     -4.86898139	      2.01776460	      0.95740756	     -0.19146334	     28.82900157	     -1.74216260	     -7.40064163	    -50.57593042	      6.21803317	      0.76475871	      0.00000000	     -0.82573188	      3.87746704	      1.96688376	    -10.43255832	     12.96075925	    -19.63084814	      0.00000000	    -27.15197948	     -4.24853857	      7.25891280
      5.37000000	     -2.76120437	     -0.65678771	     -4.20562364	      2.03189577	      0.95629268	     -0.19212402	     29.38235462	     -2.07634006	     -8.41569533	    -47.26169971	      6.66532652	      0.89744823	      0.00000000	     -2.34247473	      3.98375863	      2.14689203	     -9.09957172	     13.10265453	    -19.15622852	      0.00000000	    -27.13131731	     -3.98818260	      6.52567932
      5.38000000	     -2.55705191	     -0.48932888	     -3.57191513	      2.04620702	      0.95507175	     -0.19271151	     29.52208134	     -2.47647169	     -9.42630730	    -43.70290827	      7.05926202	      1.15118662	      0.00000000	     -4.18139033	      4.16074491	      2.25839028	     -7.72673092	     13.22027682	    -18.69621315	      0.00000000	    -27.41489164	     -3.84286858	      5.79519337
      5.39000000	     -2.44474265	     -0.23267189	     -2.91355211	      2.06065373	      0.95328330	     -0.19320223	     29.63912541	     -2.92533227	    -10.36895799	    -39.94024063	      7.48676740	      1.75966190	      0.00000000	     -5.89428671	      4.38293658	      2.41348328	     -6.44599914	     13.36940406	    -18.13687037	      0.00000000	    -27.57165429	     -3.79877417	      5.02329545
      5.40000000	     -2.24789111	      0.04658167	     -2.24075768	      2.07528542	      0.95125956	     -0.19357317	     29.51932513	     -3.34680378	    -11.24858419	    -35.94457760	      7.86066881	      2.59548521	      0.00000000	     -7.67532694	      4.59096970	      2.57860188	     -5.25576695	     13.49406041	    -17.56027088	      0.00000000	    -27.82714635	     -3.79941282	      4.27531881
      5.41000000	     -2.05900342	      0.37063834	     -1.57908617	      2.09012235	      0.94881047	     -0.19385577	     29.30943110	     -3.76007799	    -12.03684517	    -31.81951611	      8.22108247	      3.68995099	      0.00000000	     -9.42510372	      4.80989817	      2.80353479	     -4.16332149	     13.67984363	    -16.98695438	      0.00000000	    -28.04603405	     -3.85825763	      3.54419265
      5.42000000	     -1.90419642	      0.75984124	     -0.90074436	      2.10506407	      0.94599036	     -0.19405908	     29.05901415	     -4.19141732	    -12.68673644	    -27.61646131	      8.50003914	      4.96024076	      0.00000000	    -11.07747855	      5.05443992	      3.11892511	     -3.22660580	     13.89060478	    -16.42187490	      0.00000000	    -28.22310399	     -3.99191899	      2.74462916
      5.43000000	     -1.74387471	      1.13882133	     -0.23245248	      2.12019376	      0.94293679	     -0.19414630	     28.70698180	     -4.55467187	    -13.14447732	    -23.34418872	      8.66674045	      6.30476362	      0.00000000	    -12.67415201	      5.25381973	      3.46005382	     -2.45329154	     14.09405999	    -15.93551277	      0.00000000	    -28.40760445	     -4.12581934	      1.99238773
